<svg height="274.25" viewBox="0 0 1938.98 274.25" width="1938.98" xmlns="http://www.w3.org/2000/svg"><path d="m1928.08 25.28c-.17.04-.33.11-.47.22l-83.94 63.05c-.29.22-.67.31-1.01.19-1.9-.64-4.46-3.94-2.98-5.44l71.81-69.98c.1-.09.18-.2.24-.32 3.91-7.69-3.58-15.44-11.53-12.27-5.13 2.05-16.32 17.23-20.92 22.09-15.51 16.39-31.6 32.25-46.84 48.91-.1.11-.21.2-.34.26-2.71 1.34-7.74-.84-11.79-.13-1.45.26-9.67 2.62-10.82 3.17-4.53 2.14-7.32 7.44-6.91 12.43.06.69-.49 1.28-1.19 1.25-14.54-.65-22.9 12.26-17.06 25.69.21.48.09 1.04-.31 1.37-4.85 3.97-11.09 8.25-9.56 14.95.14.61.75 1 1.36.88l1.85-.37c.9-.18 1.64.71 1.31 1.57l-.53 1.34c-.17.43-.06.9.25 1.24 1.71 1.83 4.19 3.22 6.69 3.39 3.48.23 6.25-1.62 9.15-2.71 1.05-.4 1.88.73 1.47 1.58 1.59.08 2.77.79 3.52 1.8.75-1.23 3.04-3.3 3.74-4.62 2.25 3.44-4.66 4.9-1.45 7.44 5.67 4.48 16.28 7.41 23.73 5.86.66-.14 1.3.32 1.37.99 1.36 13.66-8.3 23.72-5.7 37.75 1.36 7.35 7.73 14.02 8.55 21.45 1.3 11.76-4.71 17.96-5.89 28.11-1.23 10.61.81 19.58 6.08 28.71 1.88 3.26 5.53 9.73 9.6 9.09.7-.11 1.14-.83.93-1.51-1.83-5.97-7.37-9.71-9.88-16.22-7.83-20.3 5.03-28.94 4.22-46.2-.54-11.59-9.68-18.83-9.1-31 .51-10.56 8.98-21.87 5.39-33.01-.18-.55.05-1.15.56-1.42.62-.32 1.37-.02 1.62.63 5.1 12.92-5.17 25.1-3.55 38.85.83 7.03 7.25 14.01 8.58 20.41 3.17 15.26-7.92 27.89-6.56 42.56.78 8.4 6.6 14.88 10.77 21.73.24.39.68.6 1.13.55 8.3-.96-2.51-9.75-4.41-13.77-8.92-18.96 5.33-29.19 4.56-45.54-.52-11.03-10.19-21.73-10.13-30.98.04-5.89 4.45-14.21 5.06-21.01.71-7.83-3.46-17.04 2.67-21.74.41-.41.92-.73 1.51-.95.17-.14.34-.28.54-.39.2-.17.43-.33.67-.46.03-.03.07-.06.11-.1 0 0 .01-.01.02-.02.1-.16.2-.31.32-.45.07-.18.14-.36.21-.54.21-.55.48-1.03.8-1.46.13-.45.32-.89.56-1.28 0-.13 0-.25.06-.37 4.2-9.65 4.73-19.71 3.12-29.97-.07-.44.12-.89.49-1.14l84.86-57.17c8.38-6.05 3.57-19.1-6.61-16.95zm-47.8 3.54c5.29-5.58 10.13-12 15.46-17.54 2.25-2.33 7.31-8.6 10.89-6.34 2.14 1.35.81 8.08-1.84 9.39l-76.98 74.02-4.05 1.44c17.13-21.73 37.46-40.9 56.51-60.98zm-55.16 104.84 6.15-5.85c1.36.68-.21 2.95-.84 3.68-3.85 4.42-10.75 7.42-16.66 6.31zm-12.35-1.86c1.59-5.47 1.22-11.95 2.27-17.27.36-1.83.47-3.3 2.72-2.72.69.85.73 20.55-4.99 19.99zm9-14.51c.18-1.4.53-2.88 1.99-1.48 1.85 5.93 2.13 12.69-3.98 16-.13-2.17 1.64-3.33 1.94-5.55.39-2.92-.31-6.15.05-8.97zm.5-41.48.49 1.97c-.15.17-1.84.2-2.49.97-8.47 10 5.8 20.08 10.5 28.04-12.98-4.74-24.83-22.02-8.49-30.98zm-10.51 4c.27 1.98-1.57 2.58-1.97 4.53-1.77 8.7 8.15 20.38 14.5 25.45 2.52 2.01 5.62 2.64 7.47 5.02-9.98-2.26-20.17-11.24-23.47-21.02-1.81-5.36-2.79-11.6 3.46-13.97zm-11 18c.16 3.23-4.45 3.64-5.55 6.03-1.08 2.37 2.2 5.22-.93 4.95-5.27-3.32 4.87-12.49 6.48-10.98zm-2.99-3.99c-2.24 2.71-6.03 2.99-7.87 6.62-1.65 3.25-.77 4.89-1.13 7.88-.17 1.39-.74 3.14-1.99 1.48-.86-7.56 2.54-15.65 10.99-15.98zm-14 28.98c3.51-4.12 7.61-9.39 13-10.98-3.39 4.26-7.8 8.98-13 10.98zm2 5c4.18-3.28 9.4-6.81 13.96-9.53 1.33-.79 2.04-1.97 4.04-1.45-4.57 4.88-11.53 9.21-18 10.98zm13.01 0 2.32-3.17 9.67-6.82-1.06 4.94c-3.84-1.96-6.95 4.12-10.93 5.05zm17.57 15.92c-2.73-.33-9.07-2.07-9.59-5.4 3.14 1.07 4.78 3.06 8.48 3.51 9.91 1.2 17.58-4.41 22.35-12.69.77-1.33 4.17-9.07 4.17-9.83v-16.5h2.98c5.07 17.6-8.12 43.38-28.39 40.91zm18.43-20.92c.64-4.64.45-10.02.98-14.52.18-1.5.8-3.04 2-1.47.53.7.46 14.97-2.98 15.99zm84.92-75.56c-23.22 16.53-52.59 36.72-77.01 50.99-1.4.82-9.18 5.19-9.91 4.58-1.91-1.59 1.48-2.14 1.98-2.47 23.32-15.32 46.67-33.17 68.93-50.11 4.52-3.44 23.07-20.1 26.59-20.31.91-.05 2.6.5 3.24 1.15l1.2 3.27c-.19 2.35-12.19 10.9-15.01 12.91z" fill="#fff"/></svg>