<svg height="356.62" viewBox="0 0 3533.72 356.62" width="3533.72" xmlns="http://www.w3.org/2000/svg"><path d="m1972.71 133.07c215.71-80.95 314.56 64.13 458 9.99-3.73-7.42-4.22-16.6 4.49-20 .09 2.1-2.89 3.29-3.91 5.09-2.26 3.98-2.5 13.28 3.42 12.93.51.48-2.73 1.71-1.04 4.26 28.76 27.51 67.5 1.44 98.26-7.55 22.71-6.64 42.77-7.78 65.99-2.42 34.3 7.84 75.61 35.59 109.8 17.71-53.24 26.34-102.95-33.2-160.21-17.71-37.08 6.67-84.55 44.27-116.33 8.7-138.46 57.37-240.22-91.93-458.46-9v-2z" fill="#fff"/><path d="m2759.71 154.07c2.67.73 3.62 2.14 4.49-1 8.31 7.81 18.6-1.9 18.61-11.5.01-13.53-22.88-20.25-23.85-34.25-.44-6.32 4.86-11.73 11.21-11.22 1.94.15 6.75 4.05 7.54-.52-7.28-5.92-15.11-4.1-20.98 2.49 5.03-11.34 15.23-8.08 23.99-3.53 45.9-27.58 90.09-60.6 137-85.46l-134.97 85.52-.99 1.91 4.6 4.45 150.7-84.04c8.65-8.13 2.04-18.31-9.34-13.85 9.33-10.36 21.19 8.34 10.32 14.83 0 0-151.32 84.19-151.32 84.19l2.16 4.83 2.85-.3 110.28-54.75 3.7-.79-136.99 68.49c2.15 1.79 3.74 5.51 6.98 4.08l177.9-77.19c8.13-3.04 6.49-15.37-2.37-15.42-8.18-.05-24.38 13.06-33.51 14.03l29.73-14.76c8.01-4.01 16.95 6.34 11.68 13.7-51.57 27.68-111.88 50.61-166.43 73.09 2.32 7.04.88 15.22-1.26 22.22-2.83 9.22-6.75 8.74.43 19.11 26.5 38.23 91.54-5.16 124.21-13.47 39.97-10.87 78.5 2.33 116.63 14.12-40.08-8.72-80.79-25.68-121.8-11.29-35.88 11.61-102.95 55.23-124.2 2.31-5.74 3.04-9.19 10.03-15.99 11.01 15.84 30.98-.47 33.72-4.03 60.43.35 10.94 10.69 21.14 12.58 31.51 4.96 27.2-14.52 37.11-12.58 62.58.84 11.09 7.27 18.82 8.03 29.46l-6.72-16.76c-14.17-43.26 29.71-47.5.54-94.54-12.55-28.28 20.04-37.27 1.08-70.56l-4.86 1.36c12.33 23.26.18 31.35-5.03 52-2.1 18.99 13.25 29.95 13.04 45.96-3.94 32.89-25.79 36.35-6.26 79.28.22 1 1 3.51-.76 3.26-23.64-56.12 5.52-46.33 4.54-88.04-1.92-11.04-11.63-21.28-12.59-32.41-1.59-18.32 13.24-28.42 9.8-48.81-.27-1.59-3.85-10.74-4.74-11.26-12.69-.76-27.29-6.92-32.07-19.46l-10.96 2-.49-4c-.93 1.14-5.85 8.48-7.5 6.99l6.99-9.5-4.99-2.01c-.44-1.68 1.4-1.83 1.99-2.49v3s27.98-14.5 27.98-14.5c-5.81-6.45-12.44 4.22-18.82 5.66l-.16 3.84c-2.68.53-1.47-.61-2.49-2l-6.5 4c1.62-1.78 6.55-4.86 6.76-5.24 1.14-2.05 1.18-8.39 3.39-12.12 5.89-9.93 18.5-10.09 25.85-1.65-1.97-3.76 1.65-4.05 2.47-5.95.34-1.93-1.78-9.66 1.52-11.05-4.65 24.8 25.79 25.91 22.8 45.29-11.96 22.26-18.37-18.83-28.24-27.34-6.96-6.56-18.34-7.71-22.54 2.05 20.23-15.19 31.72 16.56 34.98 32-5.11-5.79-5.48-15.02-8.81-21.68-3.86-7.73-15.68-18.95-23.72-10.36-1.89 2.02-3.85 4.89-.47 6.04.81-7.82 9.7-7.39 14.5-2.99 8.68 7.96 6.15 22.17 15.51 30.99-7.32-2.01-8.15-10.39-10.01-17l-12.97 5.5c1.28 4.08 7.21 4.92 6.98 8.5-5.58-2.69-7.36-10.34-11.98-6.51 6.15 11.71 17.22 17.05 29.97 18.51-2.78-9.65-10.92-4.64-17.99-12 4.48 2.16 10.59 2.41 14.28 4.22 2.96 1.45 4.51 6.45 7.37 6.66 6.85-1.96-2.67-5.21-5.65-7.88zm25-51.01c-.84-3.76-4.29-7.06-7.99-4.98l3.01 5.54zm-12-4.98c-7.38-1.12-11.67 1.23-11.98 8.99 3.3-2.22 6.89-4.04 10.1-6.42 1.11-.83 2.49.02 1.89-2.57zm5.94 7.9c.7-1-2.26-6.1-4.25-5.78-5.14 4.63-15.42 5.14-11.68 13.87zm9.02 3.04c.25-5.14-2.91-5.08-6.96-3.94l2.5 5.96 4.47-2.02zm-22.95 8.04c1.98 2.58 12.23-2.45 14.38-4.1 2.71-2.09 2.38-6.33-1.06-5.08-2.22 1.23-14.46 6.21-13.32 9.19zm26.99 16.51c.72-4.61-.52-10.69 0-15.5l-6.84 3.16.84 22.84c2.31.49 1.6-.25 2.25-1.27.69-1.09 3.58-8.17 3.75-9.22zm-8.01 1.5-1.48-12.99-6.48 3.48zm-18.99-6c.75-.68 1.13-.98 2-1.49-6.09-8.62-11.52-1.66-6.84 2.39.59.34 3.35-.9 4.85-.9-1.13 1.02-2.92 2.03-3.07 3.5 2.27 5.65 3.89 17.47 11.35 17.35 7.45-2.05 4.2-20.85-8.28-20.85zm-32.99 6c1.57 1.35 14.32-5.45 13.99-7.48-.43-2.62-2.27-.44-3.07-.1-1.01.44-12.92 5.87-10.92 7.58zm15.98-5-14.59 6.97.6 4.03-2.48-2.98c-1.09 1.27-12.19 5.03-9.51 7.98l26.01-10.5z" fill="#fff"/><path d="m3533.72 139.08c-93.48-17.09-194.45-33.36-293.23-9.73-66.69 14.34-132.99 49.99-202.76 31.71 74.01 14.1 147.04-22.03 219.76-36.72 92.61-17.18 185.23-5.78 276.24 14.74z" fill="#fff"/><path d="m1465.22 153.93c93.58 16.5 194.66 32.12 293.29 7.86 48.81-10.82 93.08-21.29 140.45-25.66 24.07-2.22 53.16-.5 71.83 4.26-74.1-13.63-156.62 11.37-229.25 26.52-92.49 17.77-185.19 6.96-276.32-12.98z" fill="#fff"/><path d="m2437.72 139.07c.27-3.71 4.92-3.92 5.76-7.76.7-3.2-.17-6.71-3.76-7.25 3.22-5.03 11.43 9.01-2 15.01z" fill="#fff"/><path d="m2766.48 349.25c3.72.24 3.95 4.89 7.81 5.71 3.2.68 6.71-.22 7.22-3.82 5.06 3.18-8.93 11.49-15.03-1.89z" fill="#fff"/><path d="m747.82 133.07c209.77-80.94 305.15 64.25 443.97 9.99-3.62-7.42-4.09-16.6 4.35-20 .09 2.1-2.8 3.29-3.79 5.09-2.19 3.98-2.42 13.28 3.31 12.93.49.48-2.64 1.71-1.01 4.26 27.87 27.51 65.43 1.44 95.25-7.55 22.02-6.64 41.46-7.78 63.97-2.42 33.26 7.84 73.31 35.59 106.43 17.71-51 26.4-99.97-33.16-155.3-17.71-35.95 6.67-81.96 44.27-112.77 8.7-133.96 57.5-232.09-91.92-444.42-9v-2z" fill="#fff"/><path d="m1197.94 139.07c.27-3.71 4.92-3.92 5.76-7.76.7-3.2-.17-6.71-3.76-7.25 3.22-5.03 11.43 9.01-2 15.01z" fill="none" stroke="#fff" stroke-miterlimit="10"/><path d="m0 122.15c215.71-80.95 314.56 64.13 458 9.99-3.73-7.42-4.22-16.6 4.49-20 .09 2.1-2.89 3.29-3.91 5.09-2.26 3.98-2.5 13.28 3.42 12.93.51.48-2.73 1.71-1.04 4.26 28.76 27.51 67.5 1.44 98.26-7.55 22.71-6.64 42.77-7.78 65.99-2.42 34.3 7.84 75.61 35.59 109.8 17.71-53.24 26.34-102.95-33.2-160.21-17.71-37.08 6.67-84.55 44.27-116.33 8.7-138.46 57.37-240.23-91.92-458.47-9z" fill="#fff"/><path d="m464.69 125.89c.27-3.71 4.92-3.92 5.76-7.76.7-3.2-.17-6.71-3.76-7.25 3.22-5.03 11.43 9.01-2 15.01z" fill="#fff"/><g fill="none"><path d="m2764.71 129.07c-1.49 0-4.25 1.23-4.85.9-4.68-4.06.76-11.01 6.84-2.39-.87.52-1.25.82-2 1.49 12.48 0 15.73 18.8 8.28 20.85-7.47.12-9.08-11.7-11.35-17.35.15-1.47 1.94-2.47 3.07-3.5z"/><path d="m2791.71 133.57c-.16 1.05-3.06 8.13-3.75 9.22-.64 1.02.06 1.76-2.25 1.27l-.84-22.84 6.84-3.16c-.52 4.81.72 10.89 0 15.5z"/><path d="m2778.65 105.98-15.93 8.09c-3.74-8.74 6.54-9.24 11.68-13.87 1.99-.32 4.95 4.78 4.25 5.78z"/><path d="m2747.7 130.07.03 5.5-26.01 10.5c-2.68-2.95 8.41-6.71 9.51-7.98l2.48 2.98-.6-4.03z"/><path d="m2764.72 117.06c-1.18-2.94 11.13-7.97 13.32-9.19 3.44-1.24 3.77 2.99 1.06 5.08-2.15 1.66-12.41 6.68-14.38 4.1z"/><path d="m2783.7 135.07-7.96-9.51 6.48-3.48z"/><path d="m2772.71 98.08c.6 2.59-.77 1.74-1.89 2.57-3.2 2.38-6.8 4.2-10.1 6.42.31-7.77 4.6-10.12 11.98-8.99z"/><path d="m2731.49 134.67c-1.9-1.82 10.3-6.57 11.33-6.95.81-.3 2.78-2.37 3.06.27.22 2.04-12.9 8.11-14.39 6.68z"/><path d="m2784.71 103.06-4.98.56-3.01-5.54c3.7-2.08 7.15 1.22 7.99 4.98z"/><path d="m2787.67 109.02-4.47 2.02-2.5-5.96c4.06-1.13 7.22-1.19 6.96 3.94z"/></g></svg>