<?xml version="1.0" encoding="UTF-8"?>
<svg id="Layer_1" data-name="Layer 1" xmlns="http://www.w3.org/2000/svg" width="3645.82" height="274.25" viewBox="0 0 3645.82 274.25">
  <path d="M1477.77,114.77c-41.8,4.64-86.31-3.08-127.46-14.22-64.46-17.45-129.15-42.39-195.7-36.94-94.38,7.74-179.9,75.96-274.08,66.1-45.9-4.81-89.25-28.19-135.37-26.79-18.52.56-36.94,5.15-55.39,3.47-32.24-2.94-58.89-23.65-88.34-34.98-15.43-5.93-32.54-8.84-48.84-11.3-19.5-2.94-39.47-3.2-58.91.38-1.57.29-3.13.6-4.68.94-42.51,9.21-79.15,36.21-120.93,48.31-53.58,15.51-111.1,5.37-164.94-9.25-48.71-13.23-97.08-30.15-147.13-35.05-5.26-.51-10.53-.9-15.83-1.13-13.23-.58-26.5-.16-39.68,1.19-.06,2.4-.2,4.8-.48,7.19,21.84-2.04,43.79-2.24,65.63,0,48.86,5.02,95.54,22.01,142.9,35.04,47.36,13.02,97.52,22.14,145.38,11.13,43.02-9.9,81.03-35.34,123.59-47.06,27.08-7.46,55.73-8.93,83.48-4.77,14.02,2.1,27.84,5.64,41.13,10.57,34.31,12.74,64.79,37.99,102.94,36.02,14.53-.75,28.91-3.59,43.45-3.92,31.8-.72,62.47,10.49,93.5,17.51,47.7,10.79,98.59,11.55,144.72-4.68,19.11-6.72,38.09-13.79,56.95-21.19,8.06-3.16,16.38-5.79,24.38-8.83,7.64-2.91,14.62-8.12,22.25-11.32,31.55-13.23,66.65-15.7,100.42-12.61,12,1.1,23.92,2.91,35.73,5.3,53.97,10.93,105.47,32.16,159.55,42.54,29.99,5.76,61.76,7.72,91.81,2.96-.02-1.53-.04-3.06-.06-4.59Z" fill="#fff"/>
  <path d="M3644.95,118.58c-22.64-5.94-46.02-10.34-69.62-8.76-37.97,2.53-68.23,28.57-108.05,26.03-31.12-1.98-68.06-28.25-97.73-17.82-20.58,7.24-32.53,34.62-58,25.55-6.36-2.26-11.86-6.72-16.12-11.87-.28-.34-.33-.8-.16-1.2,4.2-9.65,4.73-19.71,3.12-29.97-.07-.44.12-.89.49-1.14l84.86-57.17c8.38-6.05,3.57-19.1-6.61-16.95-.17.04-.33.11-.47.22l-83.94,63.05c-.29.22-.67.31-1.01.19-1.9-.64-4.46-3.94-2.98-5.44l71.81-69.98c.1-.09.18-.2.24-.32,3.91-7.69-3.58-15.44-11.53-12.27-5.13,2.05-16.32,17.23-20.92,22.09-15.51,16.39-31.6,32.25-46.84,48.91-.1.11-.21.2-.34.26-2.71,1.34-7.74-.84-11.79-.13-1.45.26-9.67,2.62-10.82,3.17-4.53,2.14-7.32,7.44-6.91,12.43.06.69-.49,1.28-1.19,1.25-14.54-.65-22.9,12.26-17.06,25.69.21.48.09,1.04-.31,1.37-4.85,3.97-11.09,8.25-9.56,14.95.14.61.75,1,1.36.88l1.85-.37c.9-.18,1.64.71,1.31,1.57l-.53,1.34c-.17.43-.06.9.25,1.24,1.71,1.83,4.19,3.22,6.69,3.39,3.48.23,6.25-1.62,9.15-2.71,1.23-.47,2.18,1.16,1.16,1.99-22.54,18.23-44.36-5.89-64.88-15.78-45.46-21.9-81.33,13.43-124.82,23.27-115.39,26.1-214.6-57.52-330.71-50.71-82.54,4.84-142.18,54.4-223.13,63.87-48.1,5.62-90.54.16-135.34-17.41-18.73-7.35-36.87-17.58-55.78-24.22-9.1-3.19-31.63-12.01-36.97-.48-4.72,10.19,15.7,30.03-9.53,25.99-9.77-1.56-26.97-9.32-36.71-13.29-64.95-26.52-98.88-51.2-174.24-36.17-50.62,10.1-92.01,43.08-142.59,51.41-100.44,16.54-191.75-41.74-289.72-49.7-47.98-3.9-93.95,3.82-139.45,18.66-2.93.96-4.8,5.7-.53,6.19,1.36.16,2.69-.4,3.96-.92,51.65-21.32,114.35-23.15,168.74-13.64,86.56,15.13,164.56,59.87,256,45.42,55.19-8.72,98.32-45.1,154.43-53.57,70.78-10.69,104.25,14.75,165.38,39.35,10.79,4.34,42.66,19.65,51.01,8.03,7.68-10.69-14.15-29.18,8.47-27.5,18.33,1.37,46.95,18.06,64.53,25.46,62.3,26.23,121.86,31.37,187.99,15.02,49.13-12.14,90.51-39.45,139.81-50.19,88.21-19.23,138.18,5.46,218.42,29.95,58.03,17.71,122.79,28.28,181.28,6.75,26.95-9.92,55.59-30.09,85.49-21.52,21.48,6.15,40.57,30.08,64.39,27.4,2.99-.34,17.22-5.19,18.54-7.02.29-.4-.75-1.87-.37-2.88.43-1.15,3.17-3.53,3.94-4.99,2.25,3.44-4.66,4.9-1.45,7.44,5.67,4.48,16.28,7.41,23.73,5.86.66-.14,1.3.32,1.37.99,1.36,13.66-8.3,23.72-5.7,37.75,1.36,7.35,7.73,14.02,8.55,21.45,1.3,11.76-4.71,17.96-5.89,28.11-1.23,10.61.81,19.58,6.08,28.71,1.88,3.26,5.53,9.73,9.6,9.09.7-.11,1.14-.83.93-1.51-1.83-5.97-7.37-9.71-9.88-16.22-7.83-20.3,5.03-28.94,4.22-46.2-.54-11.59-9.68-18.83-9.1-31,.51-10.56,8.98-21.87,5.39-33.01-.18-.55.05-1.15.56-1.42.62-.32,1.37-.02,1.62.63,5.1,12.92-5.17,25.1-3.55,38.85.83,7.03,7.25,14.01,8.58,20.41,3.17,15.26-7.92,27.89-6.56,42.56.78,8.4,6.6,14.88,10.77,21.73.24.39.68.6,1.13.55,8.3-.96-2.51-9.75-4.41-13.77-8.92-18.96,5.33-29.19,4.56-45.54-.52-11.03-10.19-21.73-10.13-30.98.04-5.89,4.45-14.21,5.06-21.01.71-7.91-3.55-17.23,2.86-21.89.44-.32,1.04-.31,1.46.04,12.35,10.37,22.28,17.86,39.5,12.67,15.07-4.55,23.99-19.75,37.83-25.17,27.04-10.59,61.34,12.35,89.12,16.61,37.85,5.81,58.12-10.36,91.48-20.01,30.29-8.77,64.35-5.38,94.27,3.8.75.23,1.5-.32,1.5-1.1v-3.53c0-.53-.36-.99-.87-1.13ZM3352.74,50.22c4.52-3.44,23.07-20.1,26.59-20.31.91-.05,2.6.5,3.24,1.15l1.2,3.27c-.19,2.35-12.19,10.9-15.01,12.91-23.22,16.53-52.59,36.72-77.01,50.99-1.4.82-9.18,5.19-9.91,4.58-1.91-1.59,1.48-2.14,1.98-2.47,23.32-15.32,46.67-33.17,68.93-50.11ZM3283.83,122.8c.64-4.64.45-10.02.98-14.52.18-1.5.8-3.04,2-1.47.53.7.46,14.97-2.98,15.99ZM3329.34,28.82c5.29-5.58,10.13-12,15.46-17.54,2.25-2.33,7.31-8.6,10.89-6.34,2.14,1.35.81,8.08-1.84,9.39l-76.98,74.02-4.05,1.44c17.13-21.73,37.46-40.9,56.51-60.98ZM3274.17,133.66l6.15-5.85c1.36.68-.21,2.95-.84,3.68-3.85,4.42-10.75,7.42-16.66,6.31l11.35-4.14ZM3261.83,131.8c1.59-5.47,1.22-11.95,2.27-17.27.36-1.83.47-3.3,2.72-2.72.69.85.73,20.55-4.99,19.99ZM3270.82,117.29c.18-1.4.53-2.88,1.99-1.48,1.85,5.93,2.13,12.69-3.98,16-.13-2.17,1.64-3.33,1.94-5.55.39-2.92-.31-6.15.05-8.97ZM3271.33,75.81l.49,1.97c-.15.17-1.84.2-2.49.97-8.47,10,5.8,20.08,10.5,28.04-12.98-4.74-24.83-22.02-8.49-30.98ZM3260.81,79.81c.27,1.98-1.57,2.58-1.97,4.53-1.77,8.7,8.15,20.38,14.5,25.45,2.52,2.01,5.62,2.64,7.47,5.02-9.98-2.26-20.17-11.24-23.47-21.02-1.81-5.36-2.79-11.6,3.46-13.97ZM3249.82,97.81c.16,3.23-4.45,3.64-5.55,6.03-1.08,2.37,2.2,5.22-.93,4.95-5.27-3.32,4.87-12.49,6.48-10.98ZM3246.82,93.82c-2.24,2.71-6.03,2.99-7.87,6.62-1.65,3.25-.77,4.89-1.13,7.88-.17,1.39-.74,3.14-1.99,1.48-.86-7.56,2.54-15.65,10.99-15.98ZM3232.82,122.8c3.51-4.12,7.61-9.39,13-10.98-3.39,4.26-7.8,8.98-13,10.98ZM3234.82,127.8c4.18-3.28,9.4-6.81,13.96-9.53,1.33-.79,2.04-1.97,4.04-1.45-4.57,4.88-11.53,9.21-18,10.98ZM3247.83,127.8l2.32-3.17,9.67-6.82-1.06,4.94c-3.84-1.96-6.95,4.12-10.93,5.05ZM3265.41,143.72c-2.73-.33-9.07-2.07-9.59-5.4,3.14,1.07,4.78,3.06,8.48,3.51,9.91,1.2,17.58-4.41,22.35-12.69.77-1.33,4.17-9.07,4.17-9.83v-16.5h2.98c5.07,17.6-8.12,43.38-28.39,40.91Z" fill="#fff"/>
</svg>