<svg height="689.75" viewBox="0 0 552.48 689.75" width="552.48" xmlns="http://www.w3.org/2000/svg"><path fill="#ffffff" d="m500.67 0c5.54.3 11.82.93 15.61 5.73 7.74 9.78 1.4 21.97-7.6 28.1-9.84 6.7-22.02 12.84-32.54 18.68-35.28 19.57-71.27 37.86-106.75 57.06l-102.81 52.47 1.37 17.21c10.64-4.25 21.31-8.45 31.91-12.81 68.4-28.08 136.83-58.68 205.98-84.64 9.91-3.72 27.68-12.22 37.64-7.77 10.28 4.59 11.59 18.76 4.7 26.85-5.8 6.81-31.5 15.38-40.91 18.93-32.6 12.31-65.58 23.93-98.36 35.77-48.69 17.59-97.64 34.6-146.33 52.23-4.77 14.93-12.64 28.52-19.11 42.71 16.59 38.21 43.13 72.55 48.26 115.11 3.21 26.64-.88 50.17-14.55 73.23l-9.42 13.55c14.47-1.35 29.17-1.9 43.63-3.71 23.01-2.89 48.04-7.46 70.17-14.37 14.21-4.44 28.27-10.14 40.87-18.09.73-1.47-1.01-3.11-1.85-4.26-10.24-13.85-37.14-23.95-53.33-28.77-13.05-3.89-43.79-8.79-51.92-18.81-5.2-6.41-3.6-14.81 3.78-18.55 13.02-6.61 43.61.38 57.76 4.17 19.79 5.3 58.29 18.79 64.97 40.31 3.48 11.21-.9 18.95-7.82 27.33 9.22 22.4 3.76 47.53-4.17 69.42-17.29 47.79-51.3 93.01-94.49 120.13-10.4 6.53-21.46 11.87-32.23 17.76 7.74 9.02 13.25 23.95 9.72 35.75-3.46 11.59-21.55 17.69-32.09 20.75-38.75 11.25-95.76 11.99-133.31-3.66-12.93-5.39-22.47-12.32-18.59-27.93 2.9-11.66 12.49-18.81-1.77-27.72-6.95-4.34-14.8-7.82-21.88-12.26-44.28-27.74-81.51-76.67-96.88-126.68-3.05-9.91-7.86-26.15-.51-34.87 7.84-9.3 20.28-5.46 29.88-1.42 15.28 6.43 30.41 16 45.77 22.92 29.12 13.1 62 22.48 94.25 19.55 24.09-2.18 49.33-11.23 67.68-27.03-28.31-.09-56.57-.65-84.75-3.04-33.15-2.81-67.85-8.83-99.69-18.59-20.73-6.36-72.71-22.92-58.58-53.51 7.55-16.35 37.33-28.06 53.62-33.37 29.24-9.52 62.82-15.21 93.46-18.31 8.01-.81 16.32-.69 24.21-2.22 8.21-20.65-3.75-40.05-10.69-58.84-3.42-9.25-6.06-18.85-7.82-28.56-27.55 9.59-54.95 19.68-82.83 28.34-2.94.52-12.25 3.33-13.08-.91-.46-2.33.6-3.33 2.28-4.61l92.01-31.77-1.63-19.1c-14.06 6.42-27.77 13.61-41.71 20.27-14.19 6.79-31.55 16.25-45.97 21.5-1.86.68-5.03 1.48-6.97 1.48-3.62 0-4.74-3.31-3.62-6.38 1.39-3.8 11.12-9.3 14.82-11.6 27.41-17 56.45-31.49 84.26-47.84.81-.84 2.45-11.01 3.06-13.2 3.6-12.96 11.16-25.58 24.59-29.88 3.13-1 12.36-3.19 10.39 3.07-.71 2.25-8.36 4.18-10.77 5.49-6.95 3.8-11.82 11.11-14.55 18.37-1.01 2.69-2.6 7.32-2.94 10.08-.08.64-.06.67.59.59l32.96-18.66c1.95-5.79 3.35-11.68 5.92-17.25 9.24-20.04 28.88-33.54 49.5-18.72 1.43 1.03 2.88 3.61 4.79 2.72 66.33-37.9 131.86-77.64 198.34-115.07 11.39-6.41 25.45-15.81 37.43-20.29 2.58-.97 5.33-1.39 7.82-2.54.27 0 .55-.01.81 0zm-240.62 144.72 4.29 8.52c20.71-10.18 41.41-20.55 61.97-31.08 53.36-27.31 107.36-55.35 159.6-84.69 5.16-2.9 19.89-10.42 22.89-14.5 4.96-6.72 2.1-15.19-7.11-14.42-8.61.72-31.67 14.96-40.32 19.83-16.83 9.48-33.51 19.35-50.24 29.02-50.36 29.1-100.18 59.15-151.08 87.32zm5.28 53.24c17.07-6.08 34.25-11.9 51.32-17.98 37.62-13.4 75.17-27.33 112.67-40.98 31.51-11.47 63.91-22.07 94.91-34.75 7.32-2.99 19.61-6.02 19.95-15.43.29-7.7-6.62-8.85-12.71-7.41-9.31 2.21-22.42 8.17-31.73 11.76-77.96 30.14-154.3 64.53-232.1 95.11-.64.27-.84.81-1.01 1.43-.63 2.38-.61 5.73-1.31 8.24zm-18.29-54.88c.57-.82-3.58-3.25-4.32-3.6-18.27-8.58-32.28 10.41-36.32 25.96zm-45.11 41.06 53.8-26.47.62-.64c.29-.88-2.35-7.81-4.19-7.45l-47.94 26.49c-1.52.4-2.55 7.72-2.29 8.07zm56.89-18.29-57.21 27.73c-2.09 8.7-.32 17.98.72 26.73l24.83-8.7c.55-.71.6-6.18.83-7.71.58-3.96 1.99-12.89 3.79-16.13 2.08-3.75 6.06-1.75 6.21 1.96.11 2.83-3.52 17.53-2.33 18.79l19.91-6.71 2.45-9.54c-4.14.29-18.58 9.8-16.65-.2.23-1.2 2.16-2.31 3.22-2.87 2.59-1.37 13.26-4.79 14.42-6.31 1.56-2.04.42-13.99-.19-17.05zm-98.35 38.61 32.52-16.05 1.21-6.71-32.1 17.69c-1.32 1.11-1.3 3.46-1.63 5.07zm32.1-6.09-32.06 15.09c-.86 6.9.1 13.85 1.17 20.68l32.32-10.97zm-85.35 31.7 44.06-21.17 1.05-4.03zm145.51-18.69-17.44 6.13c-1.19 1.38 3.07 19.1 4.03 21.91 1.23.96 13.16-26.02 13.41-28.04zm-33.73 63.4c3.47-5.27 6.91-10.68 10.08-16.13 1.76-3.03 3.62-6.04 4.94-9.3-2.34-7.42-4.45-14.86-5.89-22.52-.22-1.19-.52-5.87-1.26-6.08l-22.78 8.28c3.17 15.77 9.13 30.82 14.91 45.75zm-26.89 57.67c4.67-17.36 13.19-33.19 21.63-48.92-6.78-17.05-13.57-34.25-17.51-52.24l-33.16 12.38c4.2 30.53 27.92 57.63 19.76 89.65l9.29-.87zm46.39-73.11c-.95-.2-.65.12-.9.52-5.09 7.93-9.46 16.43-14.39 24.47 16.75 38.01 41.35 80.97 24.96 123.47-9.02 23.38-32.08 37-57.02 35.28-2.92-.2-6.79-1.13-7.11-4.69-.47-5.15 4.61-5.09 7.95-6.29 11.18-4.04 19.08-9.4 22.44-21.46 5.45-19.58-7.71-33.56-8.82-51.51-.2-3.27-.46-14.1 5.59-11.28 2.38 1.11 1.76 9.91 2.23 12.81 3.71 22.89 20.38 40.48 2.67 64.26l-6.43 7.59c12.72-2.98 24.61-13.31 29.87-25.21 10.09-22.82 5.98-47.43-2.22-70.12-5.45-15.08-12.66-29.54-19.32-44.09-6.9 12.29-13.14 25.14-16.87 38.81 4.2 1.27 18.84-3.38 16.18 5.61-.47 1.6-3.21 2.09-4.64 2.27-4.51.55-9.38.3-13.92.91-4.84 22.44-4.32 56.11-27.28 68.85-23.67 13.14-45.52-5.38-38.1-31.19 5.37-18.68 23.87-21.78 34.84-35.68-31.66 2.18-63.3 6.57-93.98 14.74-17 4.53-53.23 16.33-62.76 31.54-3.01 4.8-4.06 9.59-1.31 14.83 7.42 14.12 42.26 25.46 57.16 29.82 54.87 16.04 114.76 21.05 171.84 20.05 4.45-.08 10.33.03 14.61-.42 3.49-.37 6.02-3.96 8.09-6.54 17.94-22.39 25.54-50.1 22.18-78.61-4.68-39.74-28.95-73.46-45.52-108.74zm-48.77 82.11-10.57.61c-3.21 4.34-6.48 8.62-10.57 12.2-10.19 8.92-24.5 13.48-27.85 28.24-3.13 13.75 4.82 25.76 19.73 22.17 12.73-3.07 19.56-14.37 23.04-26.14 3.51-11.89 4.46-24.84 6.21-37.08zm138.92 10.27c-3.61.41-10.45 2.02-7.04 6.81 5.09 7.16 28.26 10.98 36.98 13.42 25.46 7.13 53.5 15.69 70.33 37.35 9.77-8.14 5.78-19.26-2.44-26.79-16.9-15.48-49.75-24.8-72.06-28.74-7.87-1.39-17.86-2.94-25.77-2.05zm53.57 202.55c8.54-10.6 16.31-21.83 23-33.7 12.91-22.9 28.88-60.91 24.61-87.34-.2-1.23-2.18-9.62-2.93-9.66-24.97 15.45-53.63 23.04-82.26 28.6-27.46 5.34-55.44 7.45-83.4 8.97-2.22.47-8.97 7.04-11.4 8.92-57.68 44.78-124.18 30.17-184.58.54-10.21-5.01-33.81-19.68-44.01-19.83-12.67-.18-8.49 16.08-6.6 23.69 12.79 51.45 53.98 104.36 99.34 131.13 13.93 8.22 35.04 14.16 27.37 35.25-2.32 6.36-7.54 13.21-4.02 20.27 3.35 6.72 20.08 11.98 27.09 13.96 33.76 9.54 79.83 8.85 113.49-.9 8.58-2.49 26.32-7.98 27.6-18.34 1.13-9.21-4.14-22.88-12.11-28.03-10.21 4.13-20.85 7.22-31.66 9.45-24.72 5.11-52.05 6.38-77.04 2.51-7.44-1.15-24.49-4.5-28.24-11.59-6.2-11.71 13.09-17.93 21.07-20.26 32.21-9.41 82.67-8.1 112.86 7.45 1.39.71 4.65 3.45 5.93 3.25 33.72-14.48 62.88-35.77 85.89-64.33zm-96.97 68.46c-4.48-3.11-10.64-5.05-15.95-6.61-27.49-8.06-73.86-9.23-100.05 3.41-1.12.54-5.05 2.74-5.15 3.83.32 2.06 3.61 3.56 5.44 4.32 20.72 8.7 59.14 7.36 81.24 3.87 11.77-1.86 23.26-4.88 34.47-8.82z"/></svg>